<!--?xml version="1.0" encoding="utf-8"?-->
<!-- Svg Vector Icons : http://www.onlinewebfonts.com/icon -->

<svg version="1.1" xmlns="http://www.w3.org/2000/svg" xmlns:xlink="http://www.w3.org/1999/xlink" x="0px" y="0px" viewBox="0 0 256 256" enable-background="new 0 0 256 256" xml:space="preserve">
<metadata> Svg Vector Icons : http://www.onlinewebfonts.com/icon </metadata>
<g><g><g><path fill="#afafaf" data-title="Layer 0" xs="0" d="M13.4,17.4c-1.5,0.8-3,1.9-3.3,2.4c-0.4,0.7,4.7,15.6,17,49.2c9.7,26.5,17.7,48.4,17.9,48.6c0.1,0.1,39.9,2.5,88.4,5.2c48.5,2.7,88.2,5,88.2,5.2s-39.7,2.5-88.2,5.2c-48.5,2.7-88.3,5-88.4,5.2c-0.1,0.1-8.2,22-17.9,48.6c-12.3,33.6-17.4,48.6-17,49.2c0.3,0.5,1.8,1.6,3.3,2.4c2.4,1.3,3.5,1.4,7.8,1.3c4.7-0.3,5.8-0.6,17.9-5.8c76.9-33.1,142.4-63.8,174.2-81.6c19.8-11,32.7-20.7,32.7-24.5c0-2.3-6.2-8.1-14.5-13.5C204.7,96.7,135.8,63.7,39.1,22c-12.1-5.2-13.2-5.5-17.9-5.8C16.8,16,15.7,16.2,13.4,17.4z"/></g></g></g>
</svg>